# xmcd
# 
# Track frame offsets:
#     150
#     31870
#     53642
#     92613
#     116648
#     150471
#     186563
#     217099
# 
# Disc length: 3690
# 
# Revision: 2
# Processed by: cddbd v1.5.2PL0 Copyright (c) Steve Scherf et al.
# Submitted via: BonkEnc v1.0
# 
DISCID=670e6808
DTITLE=Wynton Marsalis Quartet - The Magic Hour
DYEAR=2004
DGENRE=Jazz
TTITLE0=Feeling of Jazz
TTITLE1=You and Me
TTITLE2=Free to Be
TTITLE3=Baby, I Love You
TTITLE4=Big Fat Hen
TTITLE5=Skipping
TTITLE6=Sophie Rose-Rosalee
TTITLE7=The Magic Hour
EXTD=YEAR: 2004
EXTT0=
EXTT1=
EXTT2=
EXTT3=
EXTT4=
EXTT5=
EXTT6=
EXTT7=
PLAYORDER=
